%TF.GenerationSoftware,KiCad,Pcbnew,(6.0.4)*%
%TF.CreationDate,2022-04-18T00:49:10+02:00*%
%TF.ProjectId,ErgoTravel,4572676f-5472-4617-9665-6c2e6b696361,rev?*%
%TF.SameCoordinates,Original*%
%TF.FileFunction,Profile,NP*%
%FSLAX46Y46*%
G04 Gerber Fmt 4.6, Leading zero omitted, Abs format (unit mm)*
G04 Created by KiCad (PCBNEW (6.0.4)) date 2022-04-18 00:49:10*
%MOMM*%
%LPD*%
G01*
G04 APERTURE LIST*
%TA.AperFunction,Profile*%
%ADD10C,0.150000*%
%TD*%
G04 APERTURE END LIST*
D10*
X70777978Y-103807198D02*
X74277978Y-100307198D01*
X70777978Y-118807198D02*
X70777978Y-103807198D01*
X175277978Y-124807198D02*
X194277978Y-134307198D01*
X82277978Y-126803480D02*
X96277978Y-126807198D01*
X74277978Y-70807198D02*
X74277978Y-100307198D01*
X83277978Y-46307198D02*
X79430000Y-50307198D01*
X194277978Y-134307198D02*
X213777978Y-134307198D01*
X227777978Y-119632028D02*
X227777978Y-48307198D01*
X70777978Y-118807198D02*
X82277978Y-126803480D01*
X224777978Y-44307198D02*
X227777978Y-48307198D01*
X186277978Y-50307198D02*
X206777978Y-44307198D01*
X96277978Y-126807198D02*
X103277978Y-124807198D01*
X175277978Y-124807198D02*
X103277978Y-124807198D01*
X79430000Y-50307198D02*
X79430000Y-61307198D01*
X74277978Y-70807198D02*
X79430000Y-61307198D01*
X98777978Y-46307198D02*
X83277978Y-46307198D01*
X206777978Y-44307198D02*
X224777978Y-44307198D01*
X121705000Y-50307198D02*
X98777978Y-46307198D01*
X186277978Y-50307198D02*
X121705000Y-50307198D01*
X213777978Y-134307198D02*
X227777978Y-119632028D01*
M02*
