%TF.GenerationSoftware,KiCad,Pcbnew,(6.0.4)*%
%TF.CreationDate,2022-04-18T00:49:10+02:00*%
%TF.ProjectId,ErgoTravel,4572676f-5472-4617-9665-6c2e6b696361,rev?*%
%TF.SameCoordinates,Original*%
%TF.FileFunction,Paste,Top*%
%TF.FilePolarity,Positive*%
%FSLAX46Y46*%
G04 Gerber Fmt 4.6, Leading zero omitted, Abs format (unit mm)*
G04 Created by KiCad (PCBNEW (6.0.4)) date 2022-04-18 00:49:10*
%MOMM*%
%LPD*%
G01*
G04 APERTURE LIST*
G04 Aperture macros list*
%AMRotRect*
0 Rectangle, with rotation*
0 The origin of the aperture is its center*
0 $1 length*
0 $2 width*
0 $3 Rotation angle, in degrees counterclockwise*
0 Add horizontal line*
21,1,$1,$2,0,0,$3*%
G04 Aperture macros list end*
%ADD10R,1.200000X1.200000*%
%ADD11RotRect,1.200000X1.200000X80.000000*%
%ADD12RotRect,1.200000X1.200000X70.000000*%
%ADD13RotRect,1.200000X2.500000X340.000000*%
G04 APERTURE END LIST*
D10*
X97345000Y-66345000D03*
X97345000Y-63195000D03*
X97424884Y-84630510D03*
X97424884Y-81480510D03*
X97424884Y-103130510D03*
X97424884Y-99980510D03*
X97424884Y-117630510D03*
X97424884Y-114480510D03*
X115424884Y-64630510D03*
X115424884Y-61480510D03*
X115424884Y-81380510D03*
X115424884Y-78230510D03*
X115424884Y-100130510D03*
X115424884Y-96980510D03*
X115674884Y-114880510D03*
X115674884Y-111730510D03*
X133424884Y-65130510D03*
X133424884Y-61980510D03*
X133445000Y-85395000D03*
X133445000Y-82245000D03*
X133674884Y-97380510D03*
X133674884Y-94230510D03*
X133424884Y-113880510D03*
X133424884Y-110730510D03*
X151674884Y-61382198D03*
X151674884Y-58232198D03*
X151674884Y-80130510D03*
X151674884Y-76980510D03*
X151674884Y-95380510D03*
X151674884Y-92230510D03*
X152967978Y-111557199D03*
X152967978Y-108407199D03*
X169674884Y-61880510D03*
X169674884Y-58730510D03*
X169674884Y-81380510D03*
X169674884Y-78230510D03*
X170180000Y-99455000D03*
X170180000Y-96305000D03*
D11*
X176004482Y-117608270D03*
X176551474Y-114506126D03*
D10*
X187674884Y-64130510D03*
X187674884Y-60980510D03*
X187924884Y-82630510D03*
X187924884Y-79480510D03*
X187924884Y-93382198D03*
X187924884Y-90232198D03*
D11*
X179504482Y-117358270D03*
X180051474Y-114256126D03*
D10*
X197975000Y-76200000D03*
X201125000Y-76200000D03*
X198702978Y-94557198D03*
X201852978Y-94557198D03*
D12*
X183739296Y-112037214D03*
X184816660Y-109077182D03*
D13*
X203733661Y-52516309D03*
X199974890Y-51148228D03*
X197155812Y-50122168D03*
X202544192Y-59000533D03*
D10*
X156777978Y-111582198D03*
X156777978Y-108432198D03*
M02*
