M48
; DRILL file {KiCad (6.0.4)} date pon, 18 kwi 2022, 00:49:02
; FORMAT={-:-/ absolute / metric / decimal}
; #@! TF.CreationDate,2022-04-18T00:49:02+02:00
; #@! TF.GenerationSoftware,Kicad,Pcbnew,(6.0.4)
; #@! TF.FileFunction,NonPlated,1,2,NPTH
FMAT,2
METRIC
; #@! TA.AperFunction,NonPlated,NPTH,ComponentDrill
T1C0.991
; #@! TA.AperFunction,NonPlated,NPTH,ComponentDrill
T2C1.500
; #@! TA.AperFunction,NonPlated,NPTH,ComponentDrill
T3C1.702
; #@! TA.AperFunction,NonPlated,NPTH,ComponentDrill
T4C3.429
%
G90
G05
T1
X83.205Y-78.856
X83.205Y-95.915
X83.205Y-112.915
X83.224Y-61.737
X93.645Y-78.856
X93.645Y-95.915
X93.645Y-112.915
X93.664Y-61.737
X101.257Y-110.593
X101.317Y-59.415
X101.317Y-76.534
X101.317Y-93.474
X111.697Y-110.593
X111.757Y-59.415
X111.757Y-76.534
X111.757Y-93.474
X119.25Y-91.093
X119.309Y-56.915
X119.309Y-74.092
X119.349Y-108.211
X129.69Y-91.093
X129.749Y-56.915
X129.749Y-74.092
X129.789Y-108.211
X137.361Y-105.83
X137.402Y-71.651
X137.421Y-88.771
X137.44Y-54.593
X147.801Y-105.83
X147.842Y-71.651
X147.861Y-88.771
X147.88Y-54.593
X155.414Y-56.974
X155.414Y-74.092
X155.414Y-91.093
X162.831Y-109.393
X165.854Y-56.974
X165.854Y-74.092
X165.854Y-91.093
X173.112Y-111.206
X173.498Y-59.356
X173.498Y-93.474
X173.558Y-76.474
X183.91Y-125.013
X183.938Y-59.356
X183.938Y-93.474
X183.998Y-76.474
X188.322Y-115.551
X191.558Y-81.177
X191.573Y-108.615
X191.598Y-64.086
X195.378Y-120.313
X195.985Y-99.153
X199.791Y-110.851
X201.998Y-81.177
X202.038Y-64.086
X202.765Y-125.763
X207.178Y-116.301
T2
X194.541Y-52.629
X194.541Y-52.629
X201.119Y-55.023
X201.119Y-55.023
T3
X82.925Y-83.056
X82.925Y-100.115
X82.925Y-117.115
X82.944Y-65.937
X93.925Y-83.056
X93.925Y-100.115
X93.925Y-117.115
X93.944Y-65.937
X100.977Y-114.793
X101.037Y-63.615
X101.037Y-80.734
X101.037Y-97.674
X111.977Y-114.793
X112.037Y-63.615
X112.037Y-80.734
X112.037Y-97.674
X118.97Y-95.293
X119.029Y-61.115
X119.029Y-78.292
X119.069Y-112.411
X129.97Y-95.293
X130.029Y-61.115
X130.029Y-78.292
X130.069Y-112.411
X137.081Y-110.03
X137.122Y-75.851
X137.141Y-92.971
X137.16Y-58.793
X148.081Y-110.03
X148.122Y-75.851
X148.141Y-92.971
X148.16Y-58.793
X155.134Y-61.174
X155.134Y-78.292
X155.134Y-95.293
X161.826Y-113.48
X166.134Y-61.174
X166.134Y-78.292
X166.134Y-95.293
X172.659Y-115.391
X173.218Y-63.556
X173.218Y-97.674
X173.278Y-80.674
X184.218Y-63.556
X184.218Y-97.674
X184.278Y-80.674
X187.598Y-127.042
X191.278Y-85.377
X191.318Y-68.286
X191.454Y-118.792
X192.247Y-117.073
X195.261Y-110.644
X196.102Y-108.823
X199.91Y-100.674
X202.278Y-85.377
X202.318Y-68.286
X206.454Y-127.792
X211.102Y-117.823
T4
X88.425Y-83.056
X88.425Y-100.115
X88.425Y-117.115
X88.444Y-65.937
X106.477Y-114.793
X106.537Y-63.615
X106.537Y-80.734
X106.537Y-97.674
X124.47Y-95.293
X124.529Y-61.115
X124.529Y-78.292
X124.569Y-112.411
X142.581Y-110.03
X142.622Y-75.851
X142.641Y-92.971
X142.66Y-58.793
X160.634Y-61.174
X160.634Y-78.292
X160.634Y-95.293
X167.242Y-114.436
X178.718Y-63.556
X178.718Y-97.674
X178.778Y-80.674
X189.922Y-122.057
X193.778Y-113.807
X196.778Y-85.377
X196.818Y-68.286
X197.585Y-105.659
X208.778Y-122.807
T0
M30
