%TF.GenerationSoftware,KiCad,Pcbnew,(6.0.4)*%
%TF.CreationDate,2022-04-18T00:49:10+02:00*%
%TF.ProjectId,ErgoTravel,4572676f-5472-4617-9665-6c2e6b696361,rev?*%
%TF.SameCoordinates,Original*%
%TF.FileFunction,Soldermask,Bot*%
%TF.FilePolarity,Negative*%
%FSLAX46Y46*%
G04 Gerber Fmt 4.6, Leading zero omitted, Abs format (unit mm)*
G04 Created by KiCad (PCBNEW (6.0.4)) date 2022-04-18 00:49:10*
%MOMM*%
%LPD*%
G01*
G04 APERTURE LIST*
G04 Aperture macros list*
%AMRoundRect*
0 Rectangle with rounded corners*
0 $1 Rounding radius*
0 $2 $3 $4 $5 $6 $7 $8 $9 X,Y pos of 4 corners*
0 Add a 4 corners polygon primitive as box body*
4,1,4,$2,$3,$4,$5,$6,$7,$8,$9,$2,$3,0*
0 Add four circle primitives for the rounded corners*
1,1,$1+$1,$2,$3*
1,1,$1+$1,$4,$5*
1,1,$1+$1,$6,$7*
1,1,$1+$1,$8,$9*
0 Add four rect primitives between the rounded corners*
20,1,$1+$1,$2,$3,$4,$5,0*
20,1,$1+$1,$4,$5,$6,$7,0*
20,1,$1+$1,$6,$7,$8,$9,0*
20,1,$1+$1,$8,$9,$2,$3,0*%
%AMFreePoly0*
4,1,41,0.022678,0.944824,0.075125,0.944504,0.131210,0.936123,0.267031,0.895504,0.318507,0.871718,0.437469,0.794611,0.480202,0.757333,0.572740,0.649936,0.603290,0.602165,0.661967,0.473113,0.677883,0.418686,0.697980,0.278353,0.700000,0.250000,0.700000,-0.250000,0.699985,-0.252439,0.699836,-0.264655,0.697079,-0.295398,0.673559,-0.435199,0.656318,-0.489221,0.594506,-0.616800,
0.562797,-0.663810,0.467662,-0.768914,0.424032,-0.805137,0.303222,-0.879314,0.251181,-0.901834,0.114408,-0.939123,0.058135,-0.946132,0.037663,-0.945757,0.000000,-0.950000,-0.500000,-0.950000,-0.586777,-0.930194,-0.656366,-0.874698,-0.694986,-0.794504,-0.700000,-0.750000,-0.700000,0.750000,-0.680194,0.836777,-0.624698,0.906366,-0.544504,0.944986,-0.500000,0.950000,0.000000,0.950000,
0.022678,0.944824,0.022678,0.944824,$1*%
%AMFreePoly1*
4,1,41,0.586777,0.930194,0.656366,0.874698,0.694986,0.794504,0.700000,0.750000,0.700000,-0.750000,0.680194,-0.836777,0.624698,-0.906366,0.544504,-0.944986,0.500000,-0.950000,0.000000,-0.950000,-0.023504,-0.944635,-0.083606,-0.943534,-0.139582,-0.934468,-0.274897,-0.892193,-0.326080,-0.867780,-0.444090,-0.789225,-0.486362,-0.751429,-0.577582,-0.642910,-0.607548,-0.594768,-0.664643,-0.465009,
-0.679893,-0.410393,-0.697476,-0.275933,-0.697084,-0.275882,-0.700000,-0.250000,-0.700000,0.250000,-0.697921,0.259109,-0.697582,0.286880,-0.675771,0.426957,-0.659192,0.481183,-0.598944,0.609508,-0.567811,0.656904,-0.473967,0.763162,-0.430783,0.799915,-0.310888,0.875563,-0.259125,0.898717,-0.122818,0.937674,-0.066635,0.945370,-0.042411,0.945222,0.000000,0.950000,0.500000,0.950000,
0.586777,0.930194,0.586777,0.930194,$1*%
G04 Aperture macros list end*
%ADD10RoundRect,0.200000X0.800000X-0.800000X0.800000X0.800000X-0.800000X0.800000X-0.800000X-0.800000X0*%
%ADD11RoundRect,0.200000X0.600000X-0.600000X0.600000X0.600000X-0.600000X0.600000X-0.600000X-0.600000X0*%
%ADD12C,2.000000*%
%ADD13RoundRect,0.200000X0.648928X-0.926765X0.926765X0.648928X-0.648928X0.926765X-0.926765X-0.648928X0*%
%ADD14RoundRect,0.200000X0.486696X-0.695074X0.695074X0.486696X-0.486696X0.695074X-0.695074X-0.486696X0*%
%ADD15RoundRect,0.200000X-0.800000X-0.800000X0.800000X-0.800000X0.800000X0.800000X-0.800000X0.800000X0*%
%ADD16RoundRect,0.200000X-0.600000X-0.600000X0.600000X-0.600000X0.600000X0.600000X-0.600000X0.600000X0*%
%ADD17RoundRect,0.200000X0.358603X-0.769028X0.769028X0.358603X-0.358603X0.769028X-0.769028X-0.358603X0*%
%ADD18RoundRect,0.200000X0.478138X-1.025370X1.025370X0.478138X-0.478138X1.025370X-1.025370X-0.478138X0*%
%ADD19C,1.900000*%
%ADD20RoundRect,0.200000X-0.876300X0.876300X-0.876300X-0.876300X0.876300X-0.876300X0.876300X0.876300X0*%
%ADD21C,2.152600*%
%ADD22O,2.000000X2.000000*%
%ADD23FreePoly0,180.000000*%
%ADD24FreePoly1,180.000000*%
%ADD25RoundRect,0.200000X0.850000X-0.850000X0.850000X0.850000X-0.850000X0.850000X-0.850000X-0.850000X0*%
%ADD26O,2.100000X2.100000*%
%ADD27C,2.101800*%
%ADD28C,1.390600*%
%ADD29C,3.829000*%
%ADD30C,2.432000*%
%ADD31RoundRect,1.700000X-1.500000X-1.500000X1.500000X-1.500000X1.500000X1.500000X-1.500000X1.500000X0*%
%ADD32C,6.400000*%
%ADD33RoundRect,1.700000X-1.500000X1.500000X-1.500000X-1.500000X1.500000X-1.500000X1.500000X1.500000X0*%
%ADD34O,3.500000X2.500000*%
%ADD35C,1.000000*%
%ADD36C,5.200000*%
%ADD37RoundRect,1.700000X1.500000X-1.500000X1.500000X1.500000X-1.500000X1.500000X-1.500000X-1.500000X0*%
%ADD38RoundRect,0.200000X-0.991341X-0.969404X0.136290X-1.379828X0.991341X0.969404X-0.136290X1.379828X0*%
G04 APERTURE END LIST*
D10*
X97345000Y-68670000D03*
D11*
X97345000Y-66345000D03*
X97345000Y-63195000D03*
D12*
X97345000Y-60870000D03*
D11*
X97424884Y-84630510D03*
D10*
X97424884Y-86955510D03*
D12*
X97424884Y-79155510D03*
D11*
X97424884Y-81480510D03*
D10*
X97424884Y-105455510D03*
D11*
X97424884Y-103130510D03*
X97424884Y-99980510D03*
D12*
X97424884Y-97655510D03*
D10*
X97424884Y-119955510D03*
D11*
X97424884Y-117630510D03*
D12*
X97424884Y-112155510D03*
D11*
X97424884Y-114480510D03*
X115424884Y-64630510D03*
D10*
X115424884Y-66955510D03*
D12*
X115424884Y-59155510D03*
D11*
X115424884Y-61480510D03*
D10*
X115424884Y-83705510D03*
D11*
X115424884Y-81380510D03*
D12*
X115424884Y-75905510D03*
D11*
X115424884Y-78230510D03*
X115424884Y-100130510D03*
D10*
X115424884Y-102455510D03*
D11*
X115424884Y-96980510D03*
D12*
X115424884Y-94655510D03*
D11*
X115674884Y-114880510D03*
D10*
X115674884Y-117205510D03*
D12*
X115674884Y-109405510D03*
D11*
X115674884Y-111730510D03*
D10*
X133424884Y-67455510D03*
D11*
X133424884Y-65130510D03*
D12*
X133424884Y-59655510D03*
D11*
X133424884Y-61980510D03*
X133445000Y-85395000D03*
D10*
X133445000Y-87720000D03*
D11*
X133445000Y-82245000D03*
D12*
X133445000Y-79920000D03*
D11*
X133674884Y-97380510D03*
D10*
X133674884Y-99705510D03*
D11*
X133674884Y-94230510D03*
D12*
X133674884Y-91905510D03*
D10*
X133424884Y-116205510D03*
D11*
X133424884Y-113880510D03*
D12*
X133424884Y-108405510D03*
D11*
X133424884Y-110730510D03*
X151674884Y-61382198D03*
D10*
X151674884Y-63707198D03*
D11*
X151674884Y-58232198D03*
D12*
X151674884Y-55907198D03*
D10*
X151674884Y-82455510D03*
D11*
X151674884Y-80130510D03*
X151674884Y-76980510D03*
D12*
X151674884Y-74655510D03*
D10*
X151674884Y-97705510D03*
D11*
X151674884Y-95380510D03*
D12*
X151674884Y-89905510D03*
D11*
X151674884Y-92230510D03*
X152967978Y-111557199D03*
D10*
X152967978Y-113882199D03*
D11*
X152967978Y-108407199D03*
D12*
X152967978Y-106082199D03*
D11*
X169674884Y-61880510D03*
D10*
X169674884Y-64205510D03*
D11*
X169674884Y-58730510D03*
D12*
X169674884Y-56405510D03*
D11*
X169674884Y-81380510D03*
D10*
X169674884Y-83705510D03*
D12*
X169674884Y-75905510D03*
D11*
X169674884Y-78230510D03*
D10*
X170180000Y-101780000D03*
D11*
X170180000Y-99455000D03*
D12*
X170180000Y-93980000D03*
D11*
X170180000Y-96305000D03*
D13*
X175600750Y-119897948D03*
D14*
X176004482Y-117608270D03*
D12*
X176955206Y-112216448D03*
D14*
X176551474Y-114506126D03*
D11*
X187674884Y-64130510D03*
D10*
X187674884Y-66455510D03*
D11*
X187674884Y-60980510D03*
D12*
X187674884Y-58655510D03*
D11*
X187924884Y-82630510D03*
D10*
X187924884Y-84955510D03*
D11*
X187924884Y-79480510D03*
D12*
X187924884Y-77155510D03*
D10*
X187924884Y-95707198D03*
D11*
X187924884Y-93382198D03*
X187924884Y-90232198D03*
D12*
X187924884Y-87907198D03*
D13*
X179100750Y-119647948D03*
D14*
X179504482Y-117358270D03*
X180051474Y-114256126D03*
D12*
X180455206Y-111966448D03*
D15*
X195650000Y-76200000D03*
D16*
X197975000Y-76200000D03*
D12*
X203450000Y-76200000D03*
D16*
X201125000Y-76200000D03*
X198702978Y-94557198D03*
D15*
X196377978Y-94557198D03*
D12*
X204177978Y-94557198D03*
D16*
X201852978Y-94557198D03*
D17*
X183739296Y-112037214D03*
D18*
X182944099Y-114221999D03*
D12*
X185611857Y-106892397D03*
D17*
X184816660Y-109077182D03*
D19*
X194540739Y-52628937D03*
X201118587Y-55023078D03*
D20*
X208537978Y-50861198D03*
D21*
X208537978Y-53401198D03*
X208537978Y-55941198D03*
X208537978Y-58481198D03*
X208537978Y-61021198D03*
X208537978Y-63561198D03*
X208537978Y-66101198D03*
X208537978Y-68641198D03*
X208537978Y-71181198D03*
X208537978Y-73721198D03*
X208537978Y-76261198D03*
X208537978Y-78801198D03*
X223777978Y-50861198D03*
X223777978Y-53401198D03*
X223777978Y-55941198D03*
X223777978Y-58481198D03*
X223777978Y-61021198D03*
X223777978Y-63561198D03*
X223777978Y-66101198D03*
X223777978Y-68641198D03*
X223777978Y-71181198D03*
X223777978Y-73721198D03*
X223777978Y-76261198D03*
X223777978Y-78801198D03*
D12*
X101177978Y-53807198D03*
D22*
X111337978Y-53807198D03*
D12*
X101177978Y-50807198D03*
D22*
X111337978Y-50807198D03*
D23*
X169627978Y-52807198D03*
D24*
X170927978Y-52807198D03*
D11*
X156777978Y-111582198D03*
D10*
X156777978Y-113907198D03*
D11*
X156777978Y-108432198D03*
D12*
X156777978Y-106107198D03*
D25*
X177800000Y-109220000D03*
D26*
X180340000Y-109220000D03*
D27*
X82944288Y-65937314D03*
X93944288Y-65937314D03*
D28*
X93664288Y-61737314D03*
D29*
X88444288Y-65937314D03*
D28*
X83224288Y-61737314D03*
D30*
X88444288Y-71837314D03*
X83444288Y-69737314D03*
X93444288Y-69737314D03*
D27*
X82924884Y-83055510D03*
D28*
X93644884Y-78855510D03*
D29*
X88424884Y-83055510D03*
D28*
X83204884Y-78855510D03*
D27*
X93924884Y-83055510D03*
D30*
X88424884Y-88955510D03*
X93424884Y-86855510D03*
X83424884Y-86855510D03*
D28*
X93644884Y-95915332D03*
X83204884Y-95915332D03*
D29*
X88424884Y-100115332D03*
D27*
X93924884Y-100115332D03*
X82924884Y-100115332D03*
D30*
X88424884Y-106015332D03*
X83424884Y-103915332D03*
X93424884Y-103915332D03*
D28*
X93644884Y-112914736D03*
D29*
X88424884Y-117114736D03*
D27*
X93924884Y-117114736D03*
X82924884Y-117114736D03*
D28*
X83204884Y-112914736D03*
D30*
X88424884Y-123014736D03*
X83424884Y-120914736D03*
X93424884Y-120914736D03*
D27*
X101036582Y-63615332D03*
D28*
X101316582Y-59415332D03*
D27*
X112036582Y-63615332D03*
D29*
X106536582Y-63615332D03*
D28*
X111756582Y-59415332D03*
D30*
X106536582Y-69515332D03*
X101536582Y-67415332D03*
X111536582Y-67415332D03*
D29*
X106536582Y-80733528D03*
D28*
X101316582Y-76533528D03*
D27*
X112036582Y-80733528D03*
X101036582Y-80733528D03*
D28*
X111756582Y-76533528D03*
D30*
X106536582Y-86633528D03*
X111536582Y-84533528D03*
X101536582Y-84533528D03*
D27*
X101036582Y-97674274D03*
D28*
X101316582Y-93474274D03*
D27*
X112036582Y-97674274D03*
D29*
X106536582Y-97674274D03*
D28*
X111756582Y-93474274D03*
D30*
X106536582Y-103574274D03*
X111536582Y-101474274D03*
X101536582Y-101474274D03*
D28*
X101257044Y-110592754D03*
D27*
X100977044Y-114792754D03*
D28*
X111697044Y-110592754D03*
D27*
X111977044Y-114792754D03*
D29*
X106477044Y-114792754D03*
D30*
X106477044Y-120692754D03*
X101477044Y-118592754D03*
X111477044Y-118592754D03*
D29*
X124529204Y-61114736D03*
D27*
X130029204Y-61114736D03*
X119029204Y-61114736D03*
D28*
X119309204Y-56914736D03*
X129749204Y-56914736D03*
D30*
X124529204Y-67014736D03*
X129529204Y-64914736D03*
X119529204Y-64914736D03*
D27*
X130029204Y-78292470D03*
D29*
X124529204Y-78292470D03*
D28*
X129749204Y-74092470D03*
X119309204Y-74092470D03*
D27*
X119029204Y-78292470D03*
D30*
X124529204Y-84192470D03*
X129529204Y-82092470D03*
X119529204Y-82092470D03*
D29*
X124469666Y-95292754D03*
D28*
X129689666Y-91092754D03*
X119249666Y-91092754D03*
D27*
X118969666Y-95292754D03*
X129969666Y-95292754D03*
D30*
X124469666Y-101192754D03*
X119469666Y-99092754D03*
X129469666Y-99092754D03*
D28*
X119349472Y-108211234D03*
D27*
X119069472Y-112411234D03*
X130069472Y-112411234D03*
D28*
X129789472Y-108211234D03*
D29*
X124569472Y-112411234D03*
D30*
X124569472Y-118311234D03*
X129569472Y-116211234D03*
X119569472Y-116211234D03*
D27*
X148160172Y-58792754D03*
X137160172Y-58792754D03*
D28*
X137440172Y-54592754D03*
X147880172Y-54592754D03*
D29*
X142660172Y-58792754D03*
D30*
X142660172Y-64692754D03*
X137660172Y-62592754D03*
X147660172Y-62592754D03*
D27*
X137121632Y-75851412D03*
D29*
X142621632Y-75851412D03*
D27*
X148121632Y-75851412D03*
D28*
X147841632Y-71651412D03*
X137401632Y-71651412D03*
D30*
X142621632Y-81751412D03*
X147621632Y-79651412D03*
X137621632Y-79651412D03*
D28*
X147860902Y-88770772D03*
X137420902Y-88770772D03*
D27*
X148140902Y-92970772D03*
D29*
X142640902Y-92970772D03*
D27*
X137140902Y-92970772D03*
D30*
X142640902Y-98870772D03*
X147640902Y-96770772D03*
X137640902Y-96770772D03*
D27*
X148081364Y-110029714D03*
D28*
X147801364Y-105829714D03*
D27*
X137081364Y-110029714D03*
D28*
X137361364Y-105829714D03*
D29*
X142581364Y-110029714D03*
D30*
X142581364Y-115929714D03*
X147581364Y-113829714D03*
X137581364Y-113829714D03*
D27*
X166133524Y-61174274D03*
D28*
X155413524Y-56974274D03*
X165853524Y-56974274D03*
D27*
X155133524Y-61174274D03*
D29*
X160633524Y-61174274D03*
D30*
X160633524Y-67074274D03*
X155633524Y-64974274D03*
X165633524Y-64974274D03*
D29*
X160633524Y-78292470D03*
D28*
X155413524Y-74092470D03*
X165853524Y-74092470D03*
D27*
X155133524Y-78292470D03*
X166133524Y-78292470D03*
D30*
X160633524Y-84192470D03*
X165633524Y-82092470D03*
X155633524Y-82092470D03*
D28*
X165853524Y-91092754D03*
X155413524Y-91092754D03*
D29*
X160633524Y-95292754D03*
D27*
X166133524Y-95292754D03*
X155133524Y-95292754D03*
D30*
X160633524Y-101192754D03*
X165633524Y-99092754D03*
X155633524Y-99092754D03*
D27*
X161825799Y-113480461D03*
X172658685Y-115390591D03*
D29*
X167242242Y-114435526D03*
D28*
X173112261Y-111205777D03*
X162830868Y-109392890D03*
D30*
X166217718Y-120245892D03*
X161658340Y-117309555D03*
X171506418Y-119046036D03*
D29*
X178718440Y-63555794D03*
D27*
X173218440Y-63555794D03*
X184218440Y-63555794D03*
D28*
X173498440Y-59355794D03*
X183938440Y-59355794D03*
D30*
X178718440Y-69455794D03*
X173718440Y-67355794D03*
X183718440Y-67355794D03*
D29*
X178777978Y-80673990D03*
D27*
X173277978Y-80673990D03*
D28*
X183997978Y-76473990D03*
X173557978Y-76473990D03*
D27*
X184277978Y-80673990D03*
D30*
X178777978Y-86573990D03*
X183777978Y-84473990D03*
X173777978Y-84473990D03*
D27*
X184218440Y-97674274D03*
D28*
X183938440Y-93474274D03*
D27*
X173218440Y-97674274D03*
D29*
X178718440Y-97674274D03*
D28*
X173498440Y-93474274D03*
D30*
X178718440Y-103574274D03*
X183718440Y-101474274D03*
X173718440Y-101474274D03*
D28*
X188321953Y-115551352D03*
D29*
X189922378Y-122057275D03*
D28*
X183909818Y-125013205D03*
D27*
X187597978Y-127041968D03*
X192246778Y-117072582D03*
D30*
X195269594Y-124550723D03*
X191253256Y-128194763D03*
X195479439Y-119131685D03*
D29*
X196818112Y-68286256D03*
D27*
X191318112Y-68286256D03*
D28*
X191598112Y-64086256D03*
D27*
X202318112Y-68286256D03*
D28*
X202038112Y-64086256D03*
D30*
X196818112Y-74186256D03*
X191818112Y-72086256D03*
X201818112Y-72086256D03*
D28*
X201997978Y-81177492D03*
X191557978Y-81177492D03*
D29*
X196777978Y-85377492D03*
D27*
X202277978Y-85377492D03*
X191277978Y-85377492D03*
D30*
X196777978Y-91277492D03*
X191777978Y-89177492D03*
X201777978Y-89177492D03*
D27*
X195260870Y-110643511D03*
X199909670Y-100674125D03*
D29*
X197585270Y-105658818D03*
D28*
X191572710Y-108614748D03*
X195984845Y-99152895D03*
D30*
X202932486Y-108152266D03*
X198916148Y-111796306D03*
X203142331Y-102733228D03*
D23*
X173277978Y-53307198D03*
D24*
X174577978Y-53307198D03*
D31*
X86277978Y-51807198D03*
D32*
X93477978Y-51807198D03*
D33*
X75277978Y-106707198D03*
D32*
X75277978Y-113907198D03*
D23*
X177627978Y-53307198D03*
D24*
X178927978Y-53307198D03*
D34*
X225077978Y-101557198D03*
X225077978Y-115057198D03*
D35*
X217733978Y-110564198D03*
D36*
X219077978Y-111907198D03*
D35*
X220421978Y-113251198D03*
X217733978Y-113251198D03*
X217177978Y-111907198D03*
X219077978Y-110007198D03*
X220421978Y-110564198D03*
X220977978Y-111907198D03*
X219077978Y-113807198D03*
X217733978Y-103363198D03*
X220421978Y-103363198D03*
X220421978Y-106050198D03*
X217177978Y-104707198D03*
X217733978Y-106050198D03*
X220977978Y-104707198D03*
X219077978Y-102807198D03*
D36*
X219077978Y-104707198D03*
D35*
X219077978Y-106607198D03*
D34*
X225177978Y-83057198D03*
X225177978Y-96557198D03*
D35*
X219177978Y-91507198D03*
X217833978Y-94751198D03*
D36*
X219177978Y-93407198D03*
D35*
X220521978Y-92064198D03*
X219177978Y-95307198D03*
X221077978Y-93407198D03*
X220521978Y-94751198D03*
X217277978Y-93407198D03*
X217833978Y-92064198D03*
X217277978Y-86207198D03*
X217833978Y-87550198D03*
D36*
X219177978Y-86207198D03*
D35*
X219177978Y-84307198D03*
X220521978Y-87550198D03*
X219177978Y-88107198D03*
X220521978Y-84863198D03*
X217833978Y-84863198D03*
X221077978Y-86207198D03*
D27*
X196102378Y-108822505D03*
X191453578Y-118791891D03*
D29*
X193777978Y-113807198D03*
D28*
X195378403Y-120313121D03*
X199790538Y-110851268D03*
D30*
X188430762Y-111313750D03*
X188220917Y-116732788D03*
X192447100Y-107669710D03*
D23*
X181627978Y-53307198D03*
D24*
X182927978Y-53307198D03*
D27*
X206453578Y-127791891D03*
D28*
X207177553Y-116301275D03*
D29*
X208777978Y-122807198D03*
D28*
X202765418Y-125763128D03*
D27*
X211102378Y-117822505D03*
D30*
X214125194Y-125300646D03*
X210108856Y-128944686D03*
X214335039Y-119881608D03*
D23*
X185627978Y-53307198D03*
D24*
X186927978Y-53307198D03*
D37*
X210777978Y-95907198D03*
D32*
X210777978Y-88707198D03*
D19*
X201118587Y-55023078D03*
X194540739Y-52628937D03*
D38*
X201510530Y-58624311D03*
X197751759Y-57256230D03*
X194932681Y-56230170D03*
X204767323Y-52892531D03*
M02*
