M48
; DRILL file {KiCad (6.0.4)} date pon, 18 kwi 2022, 00:49:02
; FORMAT={-:-/ absolute / metric / decimal}
; #@! TF.CreationDate,2022-04-18T00:49:02+02:00
; #@! TF.GenerationSoftware,Kicad,Pcbnew,(6.0.4)
; #@! TF.FileFunction,Plated,1,2,PTH
FMAT,2
METRIC
; #@! TA.AperFunction,Plated,PTH,ViaDrill
T1C0.400
; #@! TA.AperFunction,Plated,PTH,ComponentDrill
T2C0.400
; #@! TA.AperFunction,Plated,PTH,ComponentDrill
T3C0.700
; #@! TA.AperFunction,Plated,PTH,ComponentDrill
T4C0.800
; #@! TA.AperFunction,Plated,PTH,ComponentDrill
T5C1.000
; #@! TA.AperFunction,Plated,PTH,ComponentDrill
T6C1.092
; #@! TA.AperFunction,Plated,PTH,ComponentDrill
T7C1.270
; #@! TA.AperFunction,Plated,PTH,ComponentDrill
T8C2.800
; #@! TA.AperFunction,Plated,PTH,ComponentDrill
T9C4.500
%
G90
G05
T1
X90.514Y-73.907
X108.626Y-72.598
X126.618Y-71.967
X144.711Y-69.74
X162.778Y-74.807
X169.628Y-52.807
X170.928Y-52.807
X173.207Y-106.878
X173.278Y-53.307
X173.278Y-56.307
X174.578Y-53.307
X177.628Y-53.307
X178.928Y-53.307
X180.867Y-75.227
X181.628Y-53.307
X182.868Y-53.367
X185.628Y-53.307
X185.778Y-90.307
X185.778Y-111.807
X186.928Y-53.307
X190.278Y-107.807
X190.778Y-70.307
X192.153Y-65.807
X192.278Y-82.307
X192.431Y-70.46
X192.778Y-64.807
X193.278Y-102.307
X194.278Y-97.807
X194.933Y-56.23
X195.278Y-64.807
X195.278Y-65.807
X196.778Y-113.307
X197.752Y-57.256
X197.778Y-82.807
X198.06Y-98.807
X198.778Y-59.307
X198.9Y-77.429
X199.278Y-103.307
X199.778Y-91.807
X199.975Y-51.148
X200.778Y-97.807
X200.778Y-103.307
X202.778Y-55.307
X203.778Y-79.307
X205.278Y-82.807
X205.278Y-98.807
X206.278Y-78.307
T2
X217.178Y-104.707
X217.178Y-111.907
X217.278Y-86.207
X217.278Y-93.407
X217.734Y-103.363
X217.734Y-106.05
X217.734Y-110.564
X217.734Y-113.251
X217.834Y-84.863
X217.834Y-87.55
X217.834Y-92.064
X217.834Y-94.751
X219.078Y-102.807
X219.078Y-106.607
X219.078Y-110.007
X219.078Y-113.807
X219.178Y-84.307
X219.178Y-88.107
X219.178Y-91.507
X219.178Y-95.307
X220.422Y-103.363
X220.422Y-106.05
X220.422Y-110.564
X220.422Y-113.251
X220.522Y-84.863
X220.522Y-87.55
X220.522Y-92.064
X220.522Y-94.751
X220.978Y-104.707
X220.978Y-111.907
X221.078Y-86.207
X221.078Y-93.407
T3
X97.345Y-60.87
X97.345Y-68.67
X97.425Y-79.156
X97.425Y-86.956
X97.425Y-97.656
X97.425Y-105.456
X97.425Y-112.156
X97.425Y-119.956
X115.425Y-59.156
X115.425Y-66.956
X115.425Y-75.906
X115.425Y-83.706
X115.425Y-94.656
X115.425Y-102.456
X115.675Y-109.406
X115.675Y-117.206
X133.425Y-59.656
X133.425Y-67.456
X133.425Y-108.406
X133.425Y-116.206
X133.445Y-79.92
X133.445Y-87.72
X133.675Y-91.906
X133.675Y-99.706
X151.675Y-55.907
X151.675Y-63.707
X151.675Y-74.656
X151.675Y-82.456
X151.675Y-89.906
X151.675Y-97.706
X152.968Y-106.082
X152.968Y-113.882
X156.778Y-106.107
X156.778Y-113.907
X169.675Y-56.406
X169.675Y-64.206
X169.675Y-75.906
X169.675Y-83.706
X170.18Y-93.98
X170.18Y-101.78
X175.601Y-119.898
X176.955Y-112.216
X179.101Y-119.648
X180.455Y-111.966
X182.944Y-114.222
X185.612Y-106.892
X187.675Y-58.656
X187.675Y-66.456
X187.925Y-77.156
X187.925Y-84.956
X187.925Y-87.907
X187.925Y-95.707
X195.65Y-76.2
X196.378Y-94.557
X203.45Y-76.2
X204.178Y-94.557
T4
X101.178Y-50.807
X101.178Y-53.807
X111.338Y-50.807
X111.338Y-53.807
T5
X177.8Y-109.22
X180.34Y-109.22
T6
X208.538Y-50.861
X208.538Y-53.401
X208.538Y-55.941
X208.538Y-58.481
X208.538Y-61.021
X208.538Y-63.561
X208.538Y-66.101
X208.538Y-68.641
X208.538Y-71.181
X208.538Y-73.721
X208.538Y-76.261
X208.538Y-78.801
X223.778Y-50.861
X223.778Y-53.401
X223.778Y-55.941
X223.778Y-58.481
X223.778Y-61.021
X223.778Y-63.561
X223.778Y-66.101
X223.778Y-68.641
X223.778Y-71.181
X223.778Y-73.721
X223.778Y-76.261
X223.778Y-78.801
T7
X83.425Y-86.856
X83.425Y-103.915
X83.425Y-120.915
X83.444Y-69.737
X88.425Y-88.956
X88.425Y-106.015
X88.425Y-123.015
X88.444Y-71.837
X93.425Y-86.856
X93.425Y-103.915
X93.425Y-120.915
X93.444Y-69.737
X101.477Y-118.593
X101.537Y-67.415
X101.537Y-84.534
X101.537Y-101.474
X106.477Y-120.693
X106.537Y-69.515
X106.537Y-86.634
X106.537Y-103.574
X111.477Y-118.593
X111.537Y-67.415
X111.537Y-84.534
X111.537Y-101.474
X119.47Y-99.093
X119.529Y-64.915
X119.529Y-82.092
X119.569Y-116.211
X124.47Y-101.193
X124.529Y-67.015
X124.529Y-84.192
X124.569Y-118.311
X129.47Y-99.093
X129.529Y-64.915
X129.529Y-82.092
X129.569Y-116.211
X137.581Y-113.83
X137.622Y-79.651
X137.641Y-96.771
X137.66Y-62.593
X142.581Y-115.93
X142.622Y-81.751
X142.641Y-98.871
X142.66Y-64.693
X147.581Y-113.83
X147.622Y-79.651
X147.641Y-96.771
X147.66Y-62.593
X155.634Y-64.974
X155.634Y-82.092
X155.634Y-99.093
X160.634Y-67.074
X160.634Y-84.192
X160.634Y-101.193
X161.658Y-117.31
X165.634Y-64.974
X165.634Y-82.092
X165.634Y-99.093
X166.218Y-120.246
X171.506Y-119.046
X173.718Y-67.356
X173.718Y-101.474
X173.778Y-84.474
X178.718Y-69.456
X178.718Y-103.574
X178.778Y-86.574
X183.718Y-67.356
X183.718Y-101.474
X183.778Y-84.474
X188.221Y-116.733
X188.431Y-111.314
X191.253Y-128.195
X191.778Y-89.177
X191.818Y-72.086
X192.447Y-107.67
X195.27Y-124.551
X195.479Y-119.132
X196.778Y-91.277
X196.818Y-74.186
X198.916Y-111.796
X201.778Y-89.177
X201.818Y-72.086
X202.932Y-108.152
X203.142Y-102.733
X210.109Y-128.945
X214.125Y-125.301
X214.335Y-119.882
T8
X219.078Y-104.707
X219.078Y-111.907
X219.178Y-86.207
X219.178Y-93.407
T9
X75.278Y-106.707
X75.278Y-113.907
X86.278Y-51.807
X93.478Y-51.807
X210.778Y-88.707
X210.778Y-95.907
T4
G00X225.578Y-101.557
M15
G01X224.578Y-101.557
M16
G05
G00X225.578Y-115.057
M15
G01X224.578Y-115.057
M16
G05
G00X225.678Y-83.057
M15
G01X224.678Y-83.057
M16
G05
G00X225.678Y-96.557
M15
G01X224.678Y-96.557
M16
G05
T0
M30
